<?xml version="1.0" standalone="no"?>
<!DOCTYPE svg PUBLIC "-//W3C//DTD SVG 20010904//EN"
 "http://www.w3.org/TR/2001/REC-SVG-20010904/DTD/svg10.dtd">
<svg version="1.0" xmlns="http://www.w3.org/2000/svg"
 width="500.000000pt" height="500.000000pt" viewBox="0 0 500.000000 500.000000"
 preserveAspectRatio="xMidYMid meet">

<g transform="translate(0.000000,500.000000) scale(0.100000,-0.100000)"
fill="#000000" stroke="none">
<path d="M1640 2821 c0 -196 -4 -312 -10 -316 -14 -8 -13 -68 2 -100 l11 -25
987 0 c943 0 988 1 1003 18 19 20 23 97 7 107 -6 4 -10 120 -10 316 l0 309
-995 0 -995 0 0 -309z m432 100 l33 -29 0 -212 0 -212 -33 -29 c-60 -54 -179
-34 -208 36 -18 43 -20 355 -3 404 16 45 62 71 126 71 44 0 58 -5 85 -29z
m-262 -202 c0 -188 -2 -225 -17 -249 -21 -36 -52 -50 -108 -50 l-45 0 0 40 c0
37 2 40 28 40 50 0 52 8 52 232 l0 208 45 0 45 0 0 -221z m430 22 c0 -224 6
-254 48 -249 l27 3 3 223 2 222 45 0 45 0 0 -220 c0 -236 -4 -261 -52 -294
-28 -20 -110 -21 -147 -1 -52 27 -61 70 -61 305 l0 210 45 0 45 0 0 -199z
m435 177 c54 -47 55 -205 1 -240 -7 -4 -2 -16 13 -32 21 -22 25 -38 29 -126
l5 -100 -45 0 c-45 0 -45 1 -52 38 -3 20 -6 60 -6 87 0 56 -12 75 -47 75 -22
0 -23 -2 -23 -100 l0 -100 -45 0 -45 0 0 260 0 260 94 0 c84 0 98 -3 121 -22z
m218 -30 c9 -29 27 -93 40 -143 l25 -90 1 143 1 142 40 0 40 0 0 -260 0 -260
-48 0 -47 0 -45 168 -45 167 -3 -167 -2 -168 -40 0 -40 0 0 260 0 260 54 0 55
0 14 -52z m392 20 c3 -18 23 -135 44 -260 l38 -228 -49 0 c-43 0 -48 2 -48 23
0 57 -9 67 -61 67 -44 0 -49 -2 -49 -22 0 -55 -10 -68 -51 -68 -31 0 -39 4
-39 18 0 17 65 421 76 475 5 26 8 27 69 27 l64 0 6 -32z m205 -188 l0 -219 68
-3 67 -3 3 -37 3 -38 -115 0 -116 0 0 260 0 260 45 0 45 0 0 -220z"/>
<path d="M1952 2858 c-8 -8 -12 -62 -12 -178 0 -116 4 -170 12 -178 17 -17 55
-15 62 4 8 20 8 328 0 348 -7 19 -45 21 -62 4z"/>
<path d="M2550 2781 c0 -71 2 -81 18 -81 41 0 53 22 50 90 l-3 65 -32 3 -33 3
0 -80z"/>
<path d="M3207 2780 c-10 -36 -27 -151 -27 -177 0 -19 5 -23 34 -23 34 0 35 1
30 33 -28 177 -31 191 -37 167z"/>
<path d="M1070 2685 l0 -295 265 0 265 0 0 295 0 295 -265 0 -265 0 0 -295z
m170 -25 l0 -170 50 0 c49 0 50 -1 50 -30 l0 -30 -85 0 -85 0 0 200 0 200 35
0 35 0 0 -170z m300 140 c0 -30 -1 -30 -55 -30 l-55 0 0 -55 0 -55 40 0 c38 0
40 -2 40 -30 0 -28 -2 -30 -40 -30 l-40 0 0 -55 0 -55 55 0 c54 0 55 0 55 -30
l0 -30 -90 0 -90 0 0 200 0 200 90 0 90 0 0 -30z"/>
<path d="M1230 2150 l0 -170 203 2 202 3 3 168 2 167 -205 0 -205 0 0 -170z
m194 108 c12 -16 16 -47 16 -113 0 -119 -10 -135 -86 -135 l-54 0 0 135 0 135
54 0 c45 0 58 -4 70 -22z m156 2 c0 -16 -7 -20 -35 -20 -33 0 -35 -2 -35 -35
0 -32 2 -35 30 -35 23 0 30 -4 30 -20 0 -16 -7 -20 -30 -20 -28 0 -30 -2 -30
-40 0 -39 1 -40 35 -40 28 0 35 -4 35 -20 0 -18 -7 -20 -60 -20 l-60 0 0 135
0 135 60 0 c53 0 60 -2 60 -20z"/>
<path d="M1350 2145 c0 -86 2 -96 18 -93 15 3 17 15 17 93 0 78 -2 90 -17 93
-16 3 -18 -7 -18 -93z"/>
<path d="M1700 2035 l0 -285 1070 0 1070 0 0 285 0 285 -1070 0 -1070 0 0
-285z m260 242 c13 -7 35 -28 47 -46 21 -31 23 -46 23 -153 0 -121 -9 -158
-44 -187 -14 -12 -13 -18 14 -51 17 -21 30 -43 30 -49 0 -7 -20 -11 -50 -11
-47 0 -52 2 -78 40 -22 31 -33 39 -59 40 -42 0 -87 39 -101 88 -15 50 -15 209
-1 253 14 40 36 68 64 80 31 12 127 10 155 -4z m360 0 c13 -7 35 -28 47 -46
21 -31 23 -46 23 -156 0 -110 -2 -125 -23 -156 -31 -45 -60 -59 -134 -59 -109
0 -143 52 -143 217 0 122 22 182 75 204 31 12 127 10 155 -4z m221 -142 c6
-160 11 -181 39 -190 20 -6 65 8 75 25 4 6 6 78 6 159 -1 160 -1 161 54 161
43 0 47 -19 43 -182 -3 -168 -12 -199 -68 -232 -36 -20 -131 -21 -170 -1 -54
28 -63 63 -68 242 l-4 161 28 5 c61 9 59 14 65 -148z m817 145 l82 0 0 -34 c0
-19 -5 -38 -11 -42 -7 -4 -45 -6 -85 -5 l-74 2 0 -35 0 -35 83 -3 82 -3 -3
-35 c-2 -19 -5 -36 -6 -37 -2 -2 -37 -6 -79 -9 l-77 -7 0 -38 c0 -39 0 -39 39
-39 21 0 59 -3 85 -6 45 -7 46 -7 46 -45 0 -20 -4 -39 -10 -41 -5 -1 -65 -1
-132 2 l-123 5 2 199 c3 219 3 220 63 211 19 -2 72 -5 118 -5z m372 -3 c33
-17 70 -74 70 -108 0 -28 -2 -29 -44 -29 -40 0 -45 3 -55 30 -9 27 -14 30 -51
30 -51 0 -60 -20 -60 -125 0 -105 10 -125 60 -125 36 0 41 3 55 36 13 33 17
35 52 32 34 -3 38 -6 41 -33 3 -36 -32 -94 -68 -112 -14 -7 -53 -13 -87 -13
-109 0 -143 52 -143 217 0 122 22 182 75 204 31 12 127 10 155 -4z m-679 -13
c62 -31 75 -132 23 -173 -19 -15 -22 -21 -11 -28 22 -13 47 -56 47 -81 0 -36
-27 -80 -60 -97 -39 -20 -225 -22 -233 -1 -7 18 -8 362 -1 381 9 22 192 22
235 -1z"/>
<path d="M1829 2173 c-6 -16 -9 -68 -7 -116 2 -75 6 -91 23 -103 20 -15 61
-11 80 7 15 15 19 175 5 209 -11 26 -18 30 -51 30 -34 0 -41 -4 -50 -27z"/>
<path d="M2190 2174 c-6 -14 -10 -58 -10 -99 0 -105 9 -125 60 -125 51 0 60
20 60 125 0 105 -9 125 -60 125 -34 0 -42 -4 -50 -26z"/>
<path d="M2910 2155 c0 -42 2 -45 28 -45 54 0 72 10 72 41 0 33 -23 49 -69 49
-30 0 -31 -1 -31 -45z"/>
<path d="M2910 1990 c0 -36 3 -40 24 -40 45 0 76 18 76 44 0 27 -16 36 -66 36
-33 0 -34 -1 -34 -40z"/>
</g>
</svg>
